<?xml version="1.0" encoding="UTF-8"?>
<svg xmlns="http://www.w3.org/2000/svg" xmlns:xlink="http://www.w3.org/1999/xlink" width="16px" height="16px" viewBox="0 0 16 16" version="1.1">
<defs>
<filter id="alpha" filterUnits="objectBoundingBox" x="0%" y="0%" width="100%" height="100%">
  <feColorMatrix type="matrix" in="SourceGraphic" values="0 0 0 0 1 0 0 0 0 1 0 0 0 0 1 0 0 0 1 0"/>
</filter>
<mask id="mask0">
  <g filter="url(#alpha)">
<rect x="0" y="0" width="16" height="16" style="fill:rgb(0%,0%,0%);fill-opacity:0.952941;stroke:none;"/>
  </g>
</mask>
<clipPath id="clip1">
  <rect x="0" y="0" width="16" height="16"/>
</clipPath>
<g id="surface5" clip-path="url(#clip1)">
<path style=" stroke:none;fill-rule:evenodd;fill:rgb(0%,0%,0%);fill-opacity:1;" d="M 15.984375 1.953125 C 15.984375 2.183594 15.984375 2.410156 15.984375 2.640625 C 15.894531 3.003906 15.722656 3.328125 15.46875 3.609375 C 13.109375 5.96875 10.75 8.328125 8.390625 10.6875 C 8.316406 10.746094 8.234375 10.789062 8.140625 10.8125 C 6.988281 11.132812 5.839844 11.449219 4.6875 11.765625 C 4.441406 11.730469 4.300781 11.589844 4.265625 11.34375 C 4.574219 10.226562 4.882812 9.105469 5.1875 7.984375 C 5.214844 7.859375 5.269531 7.742188 5.34375 7.640625 C 7.757812 5.21875 10.179688 2.804688 12.609375 0.40625 C 13.375 -0.109375 14.136719 -0.0976562 14.890625 0.4375 C 15.246094 0.75 15.550781 1.097656 15.8125 1.484375 C 15.875 1.644531 15.929688 1.800781 15.984375 1.953125 Z M 13.546875 0.859375 C 13.789062 0.835938 14.019531 0.882812 14.234375 1 C 14.566406 1.269531 14.851562 1.574219 15.09375 1.921875 C 15.234375 2.328125 15.160156 2.695312 14.875 3.015625 C 14.75 3.144531 14.621094 3.269531 14.484375 3.390625 C 13.859375 2.785156 13.246094 2.171875 12.640625 1.546875 C 12.882812 1.234375 13.1875 1.003906 13.546875 0.859375 Z M 12.015625 2.140625 C 12.644531 2.753906 13.269531 3.375 13.890625 4 C 11.957031 5.933594 10.027344 7.863281 8.09375 9.796875 C 7.472656 9.175781 6.855469 8.558594 6.234375 7.9375 C 8.167969 6.007812 10.09375 4.078125 12.015625 2.140625 Z M 5.828125 8.734375 C 6.316406 9.203125 6.796875 9.679688 7.265625 10.171875 C 6.613281 10.382812 5.957031 10.5625 5.296875 10.703125 C 5.488281 10.050781 5.664062 9.394531 5.828125 8.734375 Z M 5.828125 8.734375 "/>
</g>
<mask id="mask1">
  <g filter="url(#alpha)">
<rect x="0" y="0" width="16" height="16" style="fill:rgb(0%,0%,0%);fill-opacity:0.956863;stroke:none;"/>
  </g>
</mask>
<clipPath id="clip2">
  <rect x="0" y="0" width="16" height="16"/>
</clipPath>
<g id="surface8" clip-path="url(#clip2)">
<path style=" stroke:none;fill-rule:evenodd;fill:rgb(0%,0%,0%);fill-opacity:1;" d="M 13.390625 15.984375 C 9.515625 15.984375 5.640625 15.984375 1.765625 15.984375 C 0.820312 15.808594 0.226562 15.257812 -0.015625 14.328125 C -0.015625 10.628906 -0.015625 6.933594 -0.015625 3.234375 C 0.191406 2.398438 0.710938 1.859375 1.546875 1.625 C 2.898438 1.574219 4.253906 1.5625 5.609375 1.59375 C 5.898438 1.707031 5.984375 1.910156 5.875 2.203125 C 5.796875 2.320312 5.6875 2.390625 5.546875 2.40625 C 4.277344 2.417969 3.003906 2.425781 1.734375 2.4375 C 1.21875 2.585938 0.914062 2.925781 0.8125 3.453125 C 0.792969 7.003906 0.792969 10.558594 0.8125 14.109375 C 0.910156 14.636719 1.21875 14.972656 1.734375 15.125 C 5.621094 15.144531 9.503906 15.144531 13.390625 15.125 C 13.886719 15.003906 14.191406 14.699219 14.3125 14.203125 C 14.324219 12.921875 14.332031 11.640625 14.34375 10.359375 C 14.464844 10.042969 14.675781 9.953125 14.984375 10.09375 C 15.066406 10.15625 15.125 10.234375 15.15625 10.328125 C 15.1875 11.683594 15.175781 13.039062 15.125 14.390625 C 14.875 15.28125 14.296875 15.8125 13.390625 15.984375 Z M 13.390625 15.984375 "/>
</g>
</defs>
<g id="surface1">
<use xlink:href="#surface5" mask="url(#mask0)"/>
<use xlink:href="#surface8" mask="url(#mask1)"/>
</g>
</svg>
