<?xml version="1.0" encoding="UTF-8"?>
<svg xmlns="http://www.w3.org/2000/svg" xmlns:xlink="http://www.w3.org/1999/xlink" width="16px" height="16px" viewBox="0 0 16 16" version="1.1">
<defs>
<filter id="alpha" filterUnits="objectBoundingBox" x="0%" y="0%" width="100%" height="100%">
  <feColorMatrix type="matrix" in="SourceGraphic" values="0 0 0 0 1 0 0 0 0 1 0 0 0 0 1 0 0 0 1 0"/>
</filter>
<mask id="mask0">
  <g filter="url(#alpha)">
<rect x="0" y="0" width="16" height="16" style="fill:rgb(0%,0%,0%);fill-opacity:0.964706;stroke:none;"/>
  </g>
</mask>
<clipPath id="clip1">
  <rect x="0" y="0" width="16" height="16"/>
</clipPath>
<g id="surface5" clip-path="url(#clip1)">
<path style=" stroke:none;fill-rule:evenodd;fill:rgb(0%,0%,0%);fill-opacity:1;" d="M 5.859375 -0.015625 C 6.285156 -0.015625 6.714844 -0.015625 7.140625 -0.015625 C 9.636719 0.332031 11.421875 1.644531 12.5 3.921875 C 13.4375 6.386719 13.097656 8.660156 11.484375 10.734375 C 12.953125 12.21875 14.425781 13.699219 15.90625 15.171875 C 15.925781 15.222656 15.953125 15.261719 15.984375 15.296875 C 15.984375 15.421875 15.984375 15.546875 15.984375 15.671875 C 15.910156 15.808594 15.808594 15.910156 15.671875 15.984375 C 15.546875 15.984375 15.421875 15.984375 15.296875 15.984375 C 15.261719 15.953125 15.222656 15.925781 15.171875 15.90625 C 13.699219 14.425781 12.21875 12.953125 10.734375 11.484375 C 8.777344 13.019531 6.609375 13.402344 4.234375 12.625 C 1.777344 11.605469 0.363281 9.777344 -0.015625 7.140625 C -0.015625 6.714844 -0.015625 6.285156 -0.015625 5.859375 C 0.277344 3.621094 1.394531 1.929688 3.328125 0.78125 C 4.125 0.355469 4.96875 0.0898438 5.859375 -0.015625 Z M 6.484375 0.984375 C 8.851562 1.105469 10.542969 2.230469 11.5625 4.359375 C 12.398438 6.664062 11.976562 8.699219 10.296875 10.46875 C 8.539062 12.007812 6.5625 12.375 4.359375 11.5625 C 2.535156 10.71875 1.4375 9.308594 1.0625 7.328125 C 0.816406 5.183594 1.527344 3.4375 3.203125 2.09375 C 4.183594 1.382812 5.277344 1.015625 6.484375 0.984375 Z M 6.484375 0.984375 "/>
</g>
<mask id="mask1">
  <g filter="url(#alpha)">
<rect x="0" y="0" width="16" height="16" style="fill:rgb(0%,0%,0%);fill-opacity:0.964706;stroke:none;"/>
  </g>
</mask>
<clipPath id="clip2">
  <rect x="0" y="0" width="16" height="16"/>
</clipPath>
<g id="surface8" clip-path="url(#clip2)">
<path style=" stroke:none;fill-rule:evenodd;fill:rgb(0%,0%,0%);fill-opacity:1;" d="M 3.609375 5.984375 C 5.527344 5.980469 7.441406 5.984375 9.359375 6 C 9.722656 6.164062 9.820312 6.429688 9.65625 6.796875 C 9.566406 6.902344 9.457031 6.96875 9.328125 7 C 7.433594 7.019531 5.535156 7.019531 3.640625 7 C 3.289062 6.851562 3.179688 6.597656 3.3125 6.234375 C 3.398438 6.132812 3.496094 6.050781 3.609375 5.984375 Z M 3.609375 5.984375 "/>
</g>
</defs>
<g id="surface1">
<use xlink:href="#surface5" mask="url(#mask0)"/>
<use xlink:href="#surface8" mask="url(#mask1)"/>
</g>
</svg>
