<?xml version="1.0" encoding="UTF-8"?>
<svg xmlns="http://www.w3.org/2000/svg" xmlns:xlink="http://www.w3.org/1999/xlink" width="16px" height="16px" viewBox="0 0 16 16" version="1.1">
<defs>
<filter id="alpha" filterUnits="objectBoundingBox" x="0%" y="0%" width="100%" height="100%">
  <feColorMatrix type="matrix" in="SourceGraphic" values="0 0 0 0 1 0 0 0 0 1 0 0 0 0 1 0 0 0 1 0"/>
</filter>
<mask id="mask0">
  <g filter="url(#alpha)">
<rect x="0" y="0" width="16" height="16" style="fill:rgb(0%,0%,0%);fill-opacity:0.968627;stroke:none;"/>
  </g>
</mask>
<clipPath id="clip1">
  <rect x="0" y="0" width="16" height="16"/>
</clipPath>
<g id="surface5" clip-path="url(#clip1)">
<path style=" stroke:none;fill-rule:evenodd;fill:rgb(0%,0%,0%);fill-opacity:1;" d="M 5.734375 -0.015625 C 6.152344 -0.015625 6.566406 -0.015625 6.984375 -0.015625 C 9.109375 0.257812 10.738281 1.300781 11.875 3.109375 C 12.761719 4.699219 12.96875 6.378906 12.5 8.140625 C 12.25 8.96875 11.859375 9.71875 11.328125 10.390625 C 12.828125 11.90625 14.332031 13.417969 15.84375 14.921875 C 15.890625 14.996094 15.9375 15.070312 15.984375 15.140625 C 15.984375 15.285156 15.984375 15.433594 15.984375 15.578125 C 15.9375 15.648438 15.890625 15.722656 15.84375 15.796875 C 15.757812 15.867188 15.667969 15.929688 15.578125 15.984375 C 15.433594 15.984375 15.285156 15.984375 15.140625 15.984375 C 15.070312 15.9375 14.996094 15.890625 14.921875 15.84375 C 13.417969 14.332031 11.90625 12.828125 10.390625 11.328125 C 8.445312 12.792969 6.320312 13.121094 4.015625 12.3125 C 2.21875 11.566406 0.984375 10.28125 0.3125 8.453125 C 0.15625 7.96875 0.046875 7.480469 -0.015625 6.984375 C -0.015625 6.558594 -0.015625 6.128906 -0.015625 5.703125 C 0.308594 3.351562 1.527344 1.636719 3.640625 0.5625 C 4.3125 0.265625 5.011719 0.0742188 5.734375 -0.015625 Z M 6.296875 1.234375 C 8.519531 1.324219 10.105469 2.367188 11.0625 4.359375 C 11.792969 6.289062 11.523438 8.058594 10.25 9.671875 C 8.78125 11.257812 6.992188 11.78125 4.890625 11.25 C 2.816406 10.535156 1.613281 9.09375 1.28125 6.921875 C 1.140625 5.105469 1.75 3.601562 3.109375 2.40625 C 4.046875 1.671875 5.109375 1.28125 6.296875 1.234375 Z M 6.296875 1.234375 "/>
</g>
<mask id="mask1">
  <g filter="url(#alpha)">
<rect x="0" y="0" width="16" height="16" style="fill:rgb(0%,0%,0%);fill-opacity:0.972549;stroke:none;"/>
  </g>
</mask>
<clipPath id="clip2">
  <rect x="0" y="0" width="16" height="16"/>
</clipPath>
<g id="surface8" clip-path="url(#clip2)">
<path style=" stroke:none;fill-rule:evenodd;fill:rgb(0%,0%,0%);fill-opacity:1;" d="M 6.140625 2.671875 C 6.542969 2.59375 6.816406 2.738281 6.96875 3.109375 C 6.984375 3.972656 6.988281 4.839844 6.984375 5.703125 C 7.871094 5.6875 8.757812 5.703125 9.640625 5.75 C 10.042969 5.960938 10.152344 6.28125 9.96875 6.703125 C 9.875 6.828125 9.753906 6.917969 9.609375 6.96875 C 8.734375 6.984375 7.859375 6.988281 6.984375 6.984375 C 6.988281 7.859375 6.984375 8.734375 6.96875 9.609375 C 6.773438 10.035156 6.457031 10.15625 6.015625 9.96875 C 5.894531 9.886719 5.804688 9.777344 5.75 9.640625 C 5.703125 8.757812 5.6875 7.871094 5.703125 6.984375 C 4.839844 6.988281 3.972656 6.984375 3.109375 6.96875 C 2.671875 6.777344 2.554688 6.457031 2.75 6.015625 C 2.832031 5.894531 2.941406 5.804688 3.078125 5.75 C 3.953125 5.703125 4.828125 5.6875 5.703125 5.703125 C 5.699219 4.890625 5.703125 4.078125 5.71875 3.265625 C 5.753906 2.988281 5.894531 2.789062 6.140625 2.671875 Z M 6.140625 2.671875 "/>
</g>
</defs>
<g id="surface1">
<use xlink:href="#surface5" mask="url(#mask0)"/>
<use xlink:href="#surface8" mask="url(#mask1)"/>
</g>
</svg>
